<svg xmlns="http://www.w3.org/2000/svg" viewBox="0 0 100 100">
  <circle cx="50" cy="50" r="8" fill="#E60000" />
  <circle cx="50" cy="50" r="38" stroke="#E60000" stroke-width="10" fill="none" stroke-dasharray="21.7935 18" stroke-dashoffset="30.7935" transform="rotate(-90 50 50)" />
  <path d="M 50 32 L 36 20 L 45 20 L 45 7 L 55 7 L 55 20 L 64 20 Z" fill="#E60000" />
  <path d="M 50 32 L 36 20 L 45 20 L 45 7 L 55 7 L 55 20 L 64 20 Z" fill="#E60000" transform="rotate(60 50 50)" />
  <path d="M 50 32 L 36 20 L 45 20 L 45 7 L 55 7 L 55 20 L 64 20 Z" fill="#E60000" transform="rotate(120 50 50)" />
  <path d="M 50 32 L 36 20 L 45 20 L 45 7 L 55 7 L 55 20 L 64 20 Z" fill="#E60000" transform="rotate(180 50 50)" />
  <path d="M 50 32 L 36 20 L 45 20 L 45 7 L 55 7 L 55 20 L 64 20 Z" fill="#E60000" transform="rotate(240 50 50)" />
  <path d="M 50 32 L 36 20 L 45 20 L 45 7 L 55 7 L 55 20 L 64 20 Z" fill="#E60000" transform="rotate(300 50 50)" />
</svg>